# xmcd CD database file
#
# Track frame offsets:
#	150
#	13310
#	30742
#	46045
#	60100
#	74737
#	88165
#	105262
#	118857
#	133697
#
# Disc length: 1940 seconds
#
# Revision: 1
# Processed by: cddbd v1.4PL0 Copyright (c) Steve Scherf et al.
# Submitted via: CDex 1.40Release
#
DISCID=8307920a
DTITLE=Jean Caffeine - All-Nite Truckstop
DYEAR=1990
DGENRE=Country
TTITLE0=Big Wheel
TTITLE1=Hushed Tone
TTITLE2=Jesus is Coming Soon
TTITLE3=That's was the Liquor Talkin
TTITLE4=What's so happy about Happy Hour
TTITLE5=Hole in my Heart
TTITLE6=Pack these dreams away
TTITLE7=Tears away
TTITLE8=Pandora's Box
TTITLE9=You're like a Mosquito
EXTD=YEAR: 1990 ID3G: 2
EXTT0=
EXTT1=
EXTT2=
EXTT3=
EXTT4=
EXTT5=
EXTT6=
EXTT7=
EXTT8=
EXTT9=
PLAYORDER=
